<?xml version="1.0" encoding="UTF-8" standalone="no"?>
<!-- Created with Inkscape (http://www.inkscape.org/) -->

<svg
   version="1.1"
   id="svg2"
   width="341.33334"
   height="341.33334"
   viewBox="0 0 341.33334 341.33334"
   sodipodi:docname="dota2.png.svg"
   inkscape:version="1.1.1 (3bf5ae0d25, 2021-09-20, custom)"
   xmlns:inkscape="http://www.inkscape.org/namespaces/inkscape"
   xmlns:sodipodi="http://sodipodi.sourceforge.net/DTD/sodipodi-0.dtd"
   xmlns="http://www.w3.org/2000/svg"
   xmlns:svg="http://www.w3.org/2000/svg">
  <defs
     id="defs6" />
  <sodipodi:namedview
     id="namedview4"
     pagecolor="#ffffff"
     bordercolor="#666666"
     borderopacity="1.0"
     inkscape:pageshadow="2"
     inkscape:pageopacity="0.0"
     inkscape:pagecheckerboard="0"
     showgrid="false"
     inkscape:zoom="1.2070312"
     inkscape:cx="169.42395"
     inkscape:cy="189.72169"
     inkscape:window-width="1920"
     inkscape:window-height="1044"
     inkscape:window-x="1920"
     inkscape:window-y="0"
     inkscape:window-maximized="1"
     inkscape:current-layer="g8" />
  <g
     inkscape:groupmode="layer"
     inkscape:label="Image"
     id="g8">
    <g
       id="g9804"
       inkscape:export-filename="/home/felipe/Pictures/g9804.png"
       inkscape:export-xdpi="96"
       inkscape:export-ydpi="96">
      <path
         style="fill:#a13925;stroke-width:1.57217"
         d="m 170.35041,255.66151 c -3.02641,-0.72446 -6.97004,-0.9605 -8.76359,-0.52392 -1.88511,0.45893 -4.1299,-0.25364 -5.32027,-1.68782 -1.75884,-2.11925 -6.45435,-2.44462 -32.1807,-2.22998 -20.50246,0.17121 -31.222796,-0.33845 -33.570636,-1.59468 -3.27656,-1.75353 -3.40457,-2.57231 -2.55471,-16.34411 0.49222,-7.97397 1.49061,-16.2669 2.21903,-18.42863 3.00136,-8.90714 3.30351,-15.7349 0.8512,-19.23601 -3.68547,-5.26169 -3.20474,-18.25837 0.8344,-22.55782 3.08014,-3.27869 3.12525,-3.75364 0.78629,-8.27715 -1.36483,-2.63937 -2.48156,-7.49174 -2.48156,-10.78297 0,-3.2913 -0.7094,-8.45557 -1.57653,-11.47635 -2.04529,-7.12547 -2.25764,-20.72669 -0.47875,-30.64696 0.8619,-4.80578 0.82917,-9.82231 -0.084,-12.907759 -3.08109,-10.40702 2.29902,-11.54309 38.423106,-8.11356 17.73572,1.68386 19.09895,1.60285 26.47957,-1.57217 11.44283,-4.92261 26.52491,-4.6478 34.49802,0.62855 6.07904,4.02289 10.24842,3.96408 11.83367,-0.16724 0.64678,-1.68584 4.07528,-2.23672 13.9193,-2.23672 16.06455,0 38.90082,2.74392 41.6204,5.001 1.47436,1.22358 2.01549,7.969379 2.01549,25.125369 0,20.61375 -0.39393,24.22487 -3.25405,29.8312 -3.11264,6.10132 -3.14149,6.65996 -0.66263,12.85449 1.59326,3.98199 2.3923,9.58166 2.07486,14.54041 -0.31547,4.93116 0.25998,9.00027 1.48221,10.47344 1.50472,1.814 1.89302,10.32126 1.57217,34.43762 l -0.42643,32.02851 -8.86109,-0.53264 c -4.8737,-0.29248 -9.29306,0.16645 -9.82087,1.02058 -0.56673,0.91691 -11.90937,1.59611 -27.69642,1.65849 -15.17878,0.0634 -28.04929,0.80817 -29.77309,1.73078 -3.39696,1.81797 -3.45189,1.81789 -11.10406,-0.0159 z m 40.87643,-3.81364 c 16.08801,-0.10621 25.55276,-0.81878 27.85328,-2.09737 2.16379,-1.20265 5.8881,-1.55236 9.82603,-0.92261 l 6.34156,1.014 V 218.7639 c 0,-26.88556 -0.34479,-31.33029 -2.55733,-32.94796 -2.05187,-1.50036 -2.20723,-2.52412 -0.78628,-5.17957 2.44762,-4.57354 2.21483,-11.98863 -0.58734,-18.69441 -3.10155,-7.42302 -2.9836,-9.64261 0.89733,-16.88364 2.92479,-5.45692 3.20871,-8.30443 2.79377,-28.01505 -0.39314,-18.680689 -0.85627,-22.151839 -3.11637,-23.361389 -3.17708,-1.70034 -15.79117,-3.16511 -35.44394,-4.11587 -13.35527,-0.64599 -14.56061,-0.45576 -16.17012,2.55154 -2.18884,4.08995 -6.26833,4.12198 -13.41979,0.10542 -7.17398,-4.02939 -30.6484,-4.58558 -33.78965,-0.80063 -1.65548,1.99472 -6.44762,2.19296 -32.1803,1.33114 -32.153986,-1.07686 -34.163606,-0.67849 -30.561126,6.05241 1.45661,2.721799 1.43862,6.190889 -0.0808,15.546409 -1.54261,9.49867 -1.55371,14.49459 -0.0555,23.64887 1.04674,6.38333 2.077,14.08227 2.28958,17.10867 0.21243,3.02641 1.33994,7.77781 2.50518,10.55858 1.95184,4.65794 1.8331,5.35981 -1.50909,8.91736 -3.07887,3.27735 -3.47122,4.89089 -2.59355,10.66581 0.56911,3.74238 1.82011,8.39438 2.78077,10.33782 1.303,2.63604 1.23365,5.83032 -0.27345,12.57739 -3.08918,13.83204 -3.9304,38.28955 -1.37204,39.88875 1.14321,0.71495 15.778566,1.29912 32.523026,1.29896 16.81858,-8e-5 31.24627,0.66501 32.23587,1.48641 2.68208,2.22593 11.71216,3.1017 21.43086,2.07834 4.75584,-0.50094 19.61282,-0.98277 33.01565,-1.07123 z m -85.68335,-20.969 c -5.87011,-0.72446 -18.07996,-10.49651 -18.07996,-14.46979 0,-4.10302 7.87031,-25.43877 10.39165,-28.17088 1.76248,-1.90975 4.54809,0.19103 18.63678,14.05509 9.11044,8.96523 16.56453,17.59851 16.56453,19.18511 0,1.5866 -1.64977,3.51197 -3.66621,4.2786 -8.88922,3.37968 -19.49947,5.65856 -23.84679,5.12187 z m 17.23494,-5.13439 c 4.78826,-1.7915 8.70589,-3.75031 8.70589,-4.35295 0,-2.62042 -31.48834,-32.26828 -32.76922,-30.854 -0.75617,0.83503 -3.38063,7.11731 -5.83198,13.96068 l -4.45694,12.44241 6.79566,6.03062 c 8.09057,7.17976 14.1494,7.78953 27.55659,2.77324 z m 49.93211,-11.28526 c -44.65361,-46.42775 -86.93902,-92.94007 -86.51164,-95.15943 0.54136,-2.81073 13.29234,-6.69261 17.10836,-5.2085 3.36303,1.30799 110.06936,73.82051 113.71179,77.27319 2.94239,2.78901 2.91822,3.11439 -1.35634,18.2732 -2.39357,8.48855 -5.06638,16.31803 -5.93946,17.39893 -0.98936,1.22477 -5.62606,1.96516 -12.30663,1.96516 h -10.71924 z m 34.61176,11.00522 c 1.40081,-1.0809 4.30214,-8.45748 6.44754,-16.39238 3.62103,-13.393 3.71361,-14.5924 1.29103,-16.73273 -7.84906,-6.93445 -112.35117,-76.53399 -114.91421,-76.53399 -5.15254,0 -11.36721,3.0379 -10.83234,5.29522 0.40186,1.69598 57.39611,63.52604 91.817,99.60749 6.02555,6.31628 6.93176,6.72155 15.02819,6.72155 4.7388,0 9.76207,-0.88433 11.16279,-1.96516 z m -24.29042,-88.05251 c -8.53,-6.36122 -15.29578,-12.55504 -15.32867,-14.03281 -0.0634,-2.90965 0.58734,-3.17993 16.26611,-6.74049 l 10.82252,-2.4577 6.96211,4.08005 6.96219,4.08012 -1.10453,8.84055 c -1.67656,13.41877 -2.91155,16.81279 -6.27141,17.2355 -1.74275,0.21956 -9.55027,-4.4739 -18.30832,-11.00522 z m 21.69156,-1.2858 c 1.96262,-11.62568 1.05681,-14.40423 -5.5934,-17.15884 -6.84282,-2.83444 -29.1795,1.31694 -27.93999,5.19281 0.89725,2.80573 28.13046,23.2711 30.10956,22.62693 0.94521,-0.30754 2.48592,-5.10506 3.42383,-10.6609 z"
         id="path1632" />
      <path
         style="fill:#d63d20;fill-opacity:1;stroke:none;stroke-width:7.92626px;stroke-linecap:butt;stroke-linejoin:miter;stroke-opacity:1"
         d="m 63.223434,125.37789 19.32684,-53.074879 44.478286,-2.20627 74.15001,3.31524 34.45164,1.06156 23.60893,8.13337 9.73447,11.65018 -2.49867,45.741419 4.68989,33.05242 6.16473,38.97105 -7.03789,29.66078 c 0,0 -11.46684,22.21501 -13.34568,23.71941 -1.87892,1.50433 -54.92716,20.64403 -54.92716,20.64403 L 110.062,284.80003 84.552524,266.91434 63.990454,208.32049 58.430024,151.76797 Z"
         id="path2473"
         sodipodi:nodetypes="cccccccccccscccccc" />
      <path
         style="fill:#363636;stroke-width:1.57217"
         d="M 140.4791,331.98395 C 108.43593,324.82852 83.174544,311.44645 60.553634,289.64385 17.622624,248.26599 0.7367597,189.72866 15.302844,132.7757 24.599634,96.425481 44.888254,65.949401 74.790784,43.417181 123.08857,7.0236813 187.64162,0.67268133 242.01886,26.964571 c 43.36156,20.96567 74.36338,58.46639 87.51352,105.858929 2.817,10.15243 3.35574,16.43248 3.39553,39.5801 0.0555,33.15515 -2.46863,44.79526 -15.52064,71.53386 -16.11591,33.01518 -40.92337,57.82429 -73.95082,73.9559 -25.32908,12.37138 -37.18693,15.14581 -67.60348,15.81725 -18.0324,0.39789 -28.04818,-0.0912 -35.37387,-1.72666 z m 42.54096,-74.73243 c 1.72396,-0.92262 14.54667,-1.65199 29.74923,-1.6921 16.04347,-0.0396 27.10774,-0.69909 27.69135,-1.64319 0.53423,-0.86499 4.96469,-1.3416 9.84473,-1.05919 l 8.87273,0.51362 0.42485,-33.69096 c 0.27029,-21.38838 -0.1609,-34.2768 -1.17911,-35.29524 -0.88235,-0.88235 -1.60427,-5.74282 -1.60427,-10.80096 0,-5.16158 -1.05055,-11.22826 -2.39437,-13.82696 -2.22831,-4.30904 -2.14762,-5.09429 1.16302,-11.32013 3.25888,-6.12835 3.55025,-8.69265 3.47147,-30.54702 -0.0555,-16.4393 -0.68642,-24.580679 -2.01763,-26.184399 -2.83713,-3.41844 -19.18148,-5.77063 -40.098,-5.77063 -14.89955,0 -18.56545,0.44783 -19.29847,2.35822 -1.23641,3.22187 -5.28451,2.9037 -10.00159,-0.78629 -5.16261,-4.03827 -27.47194,-4.46589 -34.81737,-0.66739 -2.63445,1.36229 -8.08225,2.40459 -12.10625,2.31621 -4.024,-0.0888 -17.92849,-0.31863 -30.89894,-0.51203 l -23.582606,-0.35114 0.41455,10.21917 c 0.22827,5.620509 -0.32102,13.781469 -1.22057,18.135529 -1.14614,5.54838 -1.12632,11.19172 0.0634,18.86608 0.93578,6.02229 2.06979,14.13324 2.52016,18.0244 0.45021,3.89116 1.56535,9.03839 2.47782,11.43838 1.34081,3.52655 1.1402,4.93687 -1.04587,7.35248 -2.76166,3.05161 -2.75968,9.94984 0.008,30.17194 0.56911,4.15844 0.28772,8.62972 -0.65392,10.38919 -0.90914,1.69892 -2.13478,10.53979 -2.72354,19.64643 -1.04341,16.13905 -0.98,16.60607 2.50953,18.47357 2.44106,1.30641 13.139596,1.93964 33.628986,1.99029 22.08636,0.0555 30.67891,0.60953 32.42593,2.09261 1.30736,1.10999 6.25969,2.28387 11.00522,2.60861 4.74553,0.32498 9.9129,0.72129 11.48293,0.88124 1.57011,0.16011 4.21812,-0.43911 5.88462,-1.33074 z m -64.5418,-33.74534 c -2.92487,-2.15785 -5.83285,-4.75647 -6.46212,-5.77484 -0.9517,-1.53983 5.37226,-22.53435 7.47256,-24.80776 0.71812,-0.77757 28.85127,26.80883 28.85127,28.29048 0,1.35975 -16.14349,6.21554 -20.664,6.21554 -2.1339,0 -6.27292,-1.7655 -9.19771,-3.92342 z m 85.30662,-3.09949 c -14.82821,-13.90836 -92.77363,-99.29361 -91.67053,-100.4204 0.71178,-0.72684 3.44507,-1.43434 6.07405,-1.57218 3.844,-0.20133 15.71762,7.13792 60.63787,37.4817 31.64116,21.37364 55.86452,38.7545 55.87308,40.09039 0.008,1.29698 -1.57724,8.01805 -3.52354,14.93561 l -3.53867,12.57739 -9.38422,0.83789 c -8.81979,0.78787 -9.69009,0.55087 -14.46804,-3.9304 z m 1.61244,-86.23256 c -7.93276,-5.94493 -12.17276,-10.06762 -11.00522,-10.70084 1.04452,-0.56673 5.83967,-1.90025 10.65599,-2.96363 7.65502,-1.69028 9.41029,-1.59564 13.95085,0.7522 5.00266,2.58697 5.15793,2.94952 4.2136,9.83926 -0.53899,3.93428 -0.98048,8.46953 -0.98048,10.07824 0,4.60651 -3.01317,3.35257 -16.83474,-7.00546 z"
         id="path1628" />
    </g>
  </g>
</svg>
